<?xml version="1.0" encoding="UTF-8"?>
<svg xmlns="http://www.w3.org/2000/svg" width="51" height="30" viewBox="0 0 51 30" fill="none">
  <path d="M3.99162 29.1597C4.13168 27.2829 4.20171 25.042 4.20171 22.437V0.756303C3.83756 0.756303 3.23531 0.826331 2.39497 0.966387C1.55463 1.10644 0.81233 1.2465 0.168068 1.38656L0 1.13445L0.966393 0.168068H8.02526V0.588235C7.8852 2.91317 7.81518 5.15406 7.81518 7.31092V28.9916C8.17932 28.9916 8.78157 28.9216 9.62191 28.7815C10.4623 28.6134 11.2046 28.4594 11.8488 28.3193L12.0169 28.5714L11.0505 29.5798H3.99162V29.1597Z" fill="#232323"></path>
  <path d="M18.044 29.1597C18.1561 26.4146 18.2121 24.1737 18.2121 22.437V0.756303C17.7919 0.756303 16.8816 0.92437 15.481 1.26051L14.9768 1.38656L14.8507 1.13445L15.607 0.168068H18.7163C19.1365 0.168068 19.6127 0.154062 20.1449 0.126051C20.7051 0.0980405 21.1533 0.0560234 21.4894 0V0.336135C21.4894 1.17647 21.4614 2.29692 21.4054 3.69748C21.3494 5.26611 21.3214 6.47059 21.3214 7.31092V28.9916C21.6015 28.9916 22.0777 28.9216 22.7499 28.7815C23.4222 28.6134 24.0245 28.4594 24.5567 28.3193L24.6827 28.5714L23.9264 29.5798H18.044V29.1597Z" fill="#232323"></path>
  <path d="M39.4675 30C37.3106 30 35.3638 29.5238 33.6271 28.5714C31.8904 27.619 30.5319 26.3165 29.5515 24.6639C28.5711 22.9832 28.0809 21.1204 28.0809 19.0756C28.0809 17.0308 28.5711 15.1821 29.5515 13.5294C30.5319 11.8487 31.8904 10.5322 33.6271 9.57983C35.3638 8.62745 37.3106 8.15126 39.4675 8.15126C41.5964 8.15126 43.5291 8.62745 45.2658 9.57983C47.0026 10.5322 48.3611 11.8487 49.3415 13.5294C50.3219 15.1821 50.8121 17.0308 50.8121 19.0756C50.8121 21.1204 50.3219 22.9832 49.3415 24.6639C48.3611 26.3165 47.0026 27.619 45.2658 28.5714C43.5291 29.5238 41.5964 30 39.4675 30ZM39.4675 29.2017C40.9521 29.2017 42.2966 28.7675 43.5011 27.8992C44.7336 27.0028 45.7 25.7843 46.4003 24.2437C47.1006 22.7031 47.4507 20.9804 47.4507 19.0756C47.4507 17.1429 47.1006 15.4062 46.4003 13.8655C45.7 12.3249 44.7336 11.1204 43.5011 10.2521C42.2966 9.35574 40.9521 8.90756 39.4675 8.90756C37.9549 8.90756 36.5823 9.35574 35.3498 10.2521C34.1453 11.1204 33.1929 12.3249 32.4927 13.8655C31.7924 15.4062 31.4422 17.1429 31.4422 19.0756C31.4422 20.9804 31.7924 22.7031 32.4927 24.2437C33.1929 25.7843 34.1453 27.0028 35.3498 27.8992C36.5823 28.7675 37.9549 29.2017 39.4675 29.2017Z" fill="#232323"></path>
</svg>
