<?xml version="1.0" encoding="UTF-8"?>
<svg xmlns="http://www.w3.org/2000/svg" width="61" height="37" viewBox="0 0 61 37" fill="none">
  <path d="M5.15137 35.4998C5.31803 33.2665 5.40137 30.5998 5.40137 27.4998V1.69981C4.96803 1.69981 4.25137 1.78314 3.25137 1.9498C2.25137 2.11647 1.36803 2.28314 0.601367 2.44981L0.401367 2.14981L1.55137 0.999805H9.95137V1.4998C9.7847 4.26647 9.70137 6.93314 9.70137 9.49981V35.2998C10.1347 35.2998 10.8514 35.2165 11.8514 35.0498C12.8514 34.8498 13.7347 34.6665 14.5014 34.4998L14.7014 34.7998L13.5514 35.9998H5.15137V35.4998Z" fill="#F5F5F5"></path>
  <path d="M21.8736 35.4998C22.007 32.2331 22.0736 29.5665 22.0736 27.4998V1.69981C21.5736 1.69981 20.4903 1.89981 18.8236 2.29981L18.2236 2.44981L18.0736 2.14981L18.9736 0.999805H22.6736C23.1736 0.999805 23.7403 0.983139 24.3736 0.949806C25.0403 0.916473 25.5736 0.866472 25.9736 0.799805V1.19981C25.9736 2.19981 25.9403 3.53314 25.8736 5.1998C25.807 7.06647 25.7736 8.49981 25.7736 9.49981V35.2998C26.107 35.2998 26.6736 35.2165 27.4736 35.0498C28.2736 34.8498 28.9903 34.6665 29.6236 34.4998L29.7736 34.7998L28.8736 35.9998H21.8736V35.4998Z" fill="#F5F5F5"></path>
  <path d="M47.3674 36.4998C44.8007 36.4998 42.4841 35.9331 40.4174 34.7998C38.3507 33.6665 36.734 32.1165 35.5674 30.1498C34.4007 28.1498 33.8174 25.9331 33.8174 23.4998C33.8174 21.0665 34.4007 18.8665 35.5674 16.8998C36.734 14.8998 38.3507 13.3331 40.4174 12.1998C42.4841 11.0665 44.8007 10.4998 47.3674 10.4998C49.9007 10.4998 52.2007 11.0665 54.2674 12.1998C56.3341 13.3331 57.9507 14.8998 59.1174 16.8998C60.2841 18.8665 60.8674 21.0665 60.8674 23.4998C60.8674 25.9331 60.2841 28.1498 59.1174 30.1498C57.9507 32.1165 56.3341 33.6665 54.2674 34.7998C52.2007 35.9331 49.9007 36.4998 47.3674 36.4998ZM47.3674 35.5498C49.134 35.5498 50.7341 35.0331 52.1674 33.9998C53.6341 32.9331 54.7841 31.4831 55.6174 29.6498C56.4507 27.8165 56.8674 25.7665 56.8674 23.4998C56.8674 21.1998 56.4507 19.1331 55.6174 17.2998C54.7841 15.4665 53.6341 14.0331 52.1674 12.9998C50.7341 11.9331 49.134 11.3998 47.3674 11.3998C45.5674 11.3998 43.9341 11.9331 42.4674 12.9998C41.0341 14.0331 39.9007 15.4665 39.0674 17.2998C38.234 19.1331 37.8174 21.1998 37.8174 23.4998C37.8174 25.7665 38.234 27.8165 39.0674 29.6498C39.9007 31.4831 41.0341 32.9331 42.4674 33.9998C43.9341 35.0331 45.5674 35.5498 47.3674 35.5498Z" fill="#F5F5F5"></path>
</svg>
